<svg width="164" height="164" viewBox="0 0 164 164" fill="none" xmlns="http://www.w3.org/2000/svg">
<path d="M108.644 131.948C132.819 126.294 151.154 101.783 123.086 73.6133C95.0179 45.4438 24.2586 70.6518 15.1584 97.9131C6.05831 125.174 49.6756 145.739 108.644 131.948Z" fill="white"/>
<path d="M54.1344 62.1669C54.2884 62.1603 49.796 67.1941 42.281 74.5334C34.9007 81.734 29.6382 91.2929 32.9561 100.726C36.274 110.16 48.7628 112.928 54.1344 113.417C59.5059 113.905 54.1344 109.024 54.1344 109.024C54.1344 109.024 40.5418 108.535 38.8026 97.6347C37.0634 86.7348 42.1205 84.6208 50.8164 72.7432C59.5059 60.8655 54.1344 62.1669 54.1344 62.1669Z" fill="#0C8ADF"/>
<path d="M50.9189 111.574C47.3378 111.032 38.0066 107.564 35.4331 101.46C32.8532 95.3626 34.9068 87.9242 38.597 82.058C42.2871 76.1853 52.3115 66.3423 52.3115 66.3423C53.4731 65.979 54.378 65.8799 55.0454 65.9922C54.3331 67.5446 53.0367 69.718 50.8226 72.7435C42.1331 84.6212 37.0696 86.7351 38.8088 97.6351C40.2399 106.626 49.7444 108.535 53.0239 108.925C53.1201 110.398 52.7671 111.851 50.9253 111.574H50.9189Z" fill="#2CAAFF"/>
<path d="M77.5198 56.149C77.5198 56.149 77.5198 50.2895 71.3588 49.1532C65.1979 48.017 59.345 53.3811 61.3986 59.2406H64.7166C64.7166 59.2406 63.4523 53.3811 68.3489 52.2449C73.2456 51.1086 74.8308 55.8253 74.8308 57.1267L77.5198 56.149Z" fill="#2CAAFF"/>
<path d="M71.6734 58.2627C79.0986 57.4501 86.7035 59.8349 92.7104 72.2014C98.7174 84.5679 99.6479 99.0946 99.173 104.954C98.6981 110.814 80.5233 116.019 77.5199 116.178C74.5164 116.343 54.7629 113.41 50.4951 107.233C46.2274 101.05 46.7023 90.804 47.6521 83.9668C48.6019 77.1361 49.7186 65.2915 53.7425 62.5896C57.7663 59.8878 71.6734 58.2627 71.6734 58.2627Z" fill="#0C8ADF"/>
<path d="M89.5985 65.1993C89.5985 65.1993 93.802 71.6864 90.8627 78.5765C88.0646 85.1363 74.6774 86.8208 67.1688 80.8093C62.2785 76.8919 61.7459 72.7235 59.3457 68.7203C56.9904 64.7897 54.9432 62.8673 52.7804 64.1687L54.449 62.7748C54.449 62.7748 77.8798 55.2572 89.5985 65.2059V65.1993Z" fill="#2CAAFF"/>
<path d="M97.4341 99.1014C97.4341 99.1014 87.6343 106.586 75.9413 107.075C64.2484 107.564 55.591 105.258 47.5946 99.663C47.5946 99.663 48.7626 106.428 51.2912 110.821C53.8197 115.214 63.305 120.743 78.6303 119.441C93.9621 118.14 99.1155 111.336 99.462 109.367C99.8086 107.399 97.4341 99.1014 97.4341 99.1014Z" fill="#0067AB"/>
<g style="mix-blend-mode:multiply" opacity="0.57">
<path d="M49.3531 91.7555C49.3531 91.7555 51.5672 90.5333 55.4306 92.5944C59.294 94.6555 62.1948 101.413 62.3552 109.367C62.5157 117.321 54.6541 116.191 54.6541 116.191C54.6541 116.191 46.7347 92.5944 49.3531 91.7555Z" fill="#2CAAFF"/>
</g>
<path d="M47.0108 105.12C45.5283 98.3353 46.8632 92.2643 49.9436 91.5377C53.0241 90.8044 57.6063 93.9951 60.0579 103.006C62.4645 111.858 59.461 116.185 56.5217 116.588C53.5825 116.997 48.6601 112.684 47.0108 105.12Z" fill="#0072BF"/>
<path d="M56.5217 103.005C54.6285 97.5223 50.9833 91.3787 48.4868 92.3894C45.9903 93.4068 45.2395 100.878 47.5948 107.266C49.9436 113.654 53.4605 117.803 56.5217 116.587C59.5829 115.365 58.5176 108.779 56.5217 103.005Z" fill="#0C8ADF"/>
<path d="M57.606 63.6335C57.606 63.6335 53.4473 69.4072 53.5115 88.4458H52.6259C52.6259 88.4458 51.2204 71.8977 56.1812 63.6335H57.606Z" fill="#D5D5D5"/>
<path d="M54.2114 91.432C54.2114 91.432 53.9226 88.9283 53.5119 88.4394C53.1012 87.9506 52.6263 88.4394 52.6263 88.4394C52.6263 88.4394 51.4262 90.6987 51.3492 91.0752C51.2721 91.4518 53.6531 91.8944 54.2114 91.4254V91.432Z" fill="#B1B1B1"/>
<path d="M51.7404 65.0341C51.7404 65.0341 54.2882 59.2406 67.0914 56.149C79.8946 53.0574 86.1454 57.9459 89.8997 63.6336C92.5309 67.6171 92.685 78.5699 82.8916 81.5294C73.1111 84.4823 65.8143 77.5129 62.9777 72.7434C59.833 67.4453 55.9696 60.6015 51.7404 65.0341Z" fill="#0072BF"/>
<path d="M67.0402 56.1492C63.35 57.0146 60.0064 58.3556 57.7474 59.5909C62.4965 61.7049 65.4679 69.8501 66.8797 72.0896C68.6189 74.8575 74.6258 79.409 81.2617 78.4313C87.8975 77.4537 89.7266 71.4554 88.3211 65.9459C86.7552 59.8222 79.715 55.9907 76.8784 55.3168C74.0418 54.643 69.312 55.6141 67.0402 56.1492Z" fill="#0C8ADF"/>
<path d="M56.3228 66.3422C56.3228 66.3422 56.3677 66.2299 56.3549 66.0713C56.3549 66.0317 56.3484 65.9855 56.3356 65.9458C56.3228 65.8996 56.3164 65.8533 56.2971 65.8137C56.2779 65.7675 56.2586 65.7212 56.2329 65.675L56.1495 65.5495L56.0468 65.4372C56.0147 65.3975 55.9698 65.3711 55.9313 65.3447C55.8928 65.3182 55.8543 65.2918 55.8094 65.272C55.7709 65.2522 55.7324 65.239 55.6938 65.2258C55.6233 65.1993 55.5527 65.1993 55.5013 65.1993C55.45 65.1993 55.4243 65.1993 55.4243 65.1993C55.4243 65.1993 55.4371 65.2258 55.45 65.272C55.4692 65.3182 55.4949 65.3777 55.527 65.4372C55.5398 65.4702 55.5591 65.5032 55.5783 65.5362C55.5976 65.5693 55.6168 65.6023 55.6425 65.6353C55.6618 65.6684 55.6874 65.7014 55.7131 65.7344L55.7901 65.8335L55.8671 65.926L55.9506 66.0185C55.9506 66.0185 56.0083 66.0713 56.034 66.1044C56.0597 66.1308 56.0917 66.1572 56.1174 66.177C56.2201 66.2695 56.3228 66.3356 56.3228 66.3356V66.3422Z" fill="#868483"/>
<path d="M55.7004 67.9936C55.7004 67.9936 55.7453 67.8747 55.7389 67.7029C55.7389 67.6633 55.7389 67.6104 55.726 67.5642C55.7196 67.518 55.7068 67.4651 55.6939 67.4189C55.6747 67.3726 55.6554 67.3198 55.6362 67.2669L55.5592 67.1216L55.4629 66.9895C55.4308 66.9432 55.3923 66.9102 55.3538 66.8772C55.3153 66.8441 55.2768 66.8111 55.2319 66.7913C55.1934 66.7649 55.1549 66.7451 55.1164 66.7252C55.0393 66.6922 54.9688 66.6724 54.9174 66.6658C54.8661 66.6658 54.834 66.6592 54.834 66.6592C54.834 66.6592 54.8404 66.6856 54.8597 66.7385C54.8789 66.7847 54.8982 66.8574 54.9303 66.9234C54.9431 66.9631 54.9623 66.9961 54.9816 67.0357C55.0008 67.0754 55.0201 67.115 55.0458 67.148C55.065 67.1877 55.0907 67.2273 55.1164 67.2669L55.1934 67.3792L55.2704 67.4915L55.3538 67.5972C55.3795 67.6369 55.4116 67.6633 55.4372 67.6963C55.4629 67.7294 55.495 67.7558 55.5207 67.7888C55.6234 67.9011 55.7196 67.9804 55.7196 67.9804L55.7004 67.9936Z" fill="#868483"/>
<path d="M55.1741 69.9231C55.1741 69.9231 55.219 69.8042 55.1998 69.6324C55.1998 69.5928 55.1934 69.54 55.1805 69.4937C55.1677 69.4475 55.1613 69.3946 55.1356 69.3484C55.1164 69.3021 55.0907 69.2493 55.0714 69.2031L54.9816 69.0643L54.8725 68.9388C54.834 68.8992 54.7891 68.8661 54.7506 68.8331C54.7121 68.8001 54.6671 68.7737 54.6222 68.7538C54.5773 68.734 54.5388 68.7142 54.5003 68.701C54.4233 68.6746 54.3462 68.668 54.2949 68.668C54.2436 68.668 54.2115 68.668 54.2115 68.668C54.2115 68.668 54.2243 68.6944 54.2436 68.7472C54.2628 68.7935 54.2949 68.8595 54.3334 68.919C54.3527 68.952 54.3719 68.9851 54.3976 69.0247C54.4168 69.0577 54.4425 69.0974 54.4682 69.1304C54.4939 69.17 54.5131 69.2031 54.5452 69.2361L54.6286 69.3418L54.712 69.4475L54.8019 69.5466C54.8276 69.5796 54.8661 69.606 54.8917 69.6391C54.9174 69.6721 54.9495 69.6985 54.9752 69.7249C55.0843 69.8306 55.1805 69.9099 55.1805 69.9099L55.1741 69.9231Z" fill="#868483"/>
<path d="M54.6479 72.2024C54.6479 72.2024 54.6928 72.0835 54.6864 71.9118C54.6864 71.8721 54.6864 71.8193 54.6671 71.773C54.6543 71.7268 54.6479 71.6739 54.6286 71.6277C54.6094 71.5815 54.5837 71.5286 54.5644 71.4824L54.4746 71.3436L54.3655 71.2181C54.3334 71.1785 54.2885 71.1455 54.2436 71.1124C54.2051 71.0794 54.1601 71.053 54.1152 71.0332C54.0767 71.0133 54.0318 70.9935 53.9933 70.9803C53.9163 70.9539 53.8393 70.9407 53.7879 70.9407H53.7045C53.7045 70.9407 53.7173 70.9737 53.7366 71.0199C53.7558 71.0662 53.7879 71.1322 53.82 71.1983C53.8393 71.2313 53.8585 71.271 53.8778 71.304C53.897 71.337 53.9163 71.3767 53.9484 71.4097C53.974 71.4493 53.9933 71.4824 54.0254 71.522L54.1024 71.6277L54.1858 71.7334L54.2692 71.8325C54.2949 71.8655 54.327 71.8985 54.3527 71.925C54.3783 71.958 54.4104 71.9844 54.4361 72.0109C54.5388 72.1165 54.635 72.1958 54.635 72.1958L54.6479 72.2024Z" fill="#868483"/>
<path d="M54.2494 74.336C54.2494 74.336 54.2751 74.2171 54.2366 74.0586C54.2302 74.0189 54.2173 73.9793 54.2045 73.933C54.1917 73.8934 54.1724 73.8472 54.1532 73.8075C54.1275 73.7679 54.1082 73.7217 54.0826 73.682L53.9927 73.5631L53.8836 73.4574C53.8515 73.4244 53.8066 73.398 53.7681 73.3715C53.7296 73.3451 53.6911 73.3253 53.6462 73.3055C53.6077 73.2857 53.5692 73.2724 53.5307 73.2592C53.4601 73.2328 53.3895 73.2328 53.3381 73.2262C53.2868 73.2262 53.2611 73.2262 53.2611 73.2262C53.2611 73.2262 53.2675 73.2526 53.2868 73.3055C53.306 73.3517 53.3317 73.4112 53.3638 73.4772C53.3831 73.5103 53.4023 73.5433 53.4216 73.5763C53.4408 73.6093 53.4665 73.649 53.4921 73.6754C53.5178 73.7084 53.5371 73.7481 53.5692 73.7745L53.6526 73.8736L53.7424 73.9661L53.8387 74.052C53.8387 74.052 53.9029 74.1048 53.935 74.1312C53.9671 74.1576 53.9991 74.1775 54.0248 74.1973C54.1403 74.2832 54.2494 74.3294 54.2494 74.3294V74.336Z" fill="#868483"/>
<path d="M53.9995 76.6476C53.9995 76.6476 54.0316 76.5221 54.0059 76.3437C53.9995 76.2975 53.9931 76.2512 53.9802 76.205C53.9674 76.1587 53.9546 76.1059 53.9289 76.053C53.9032 76.0068 53.8776 75.9539 53.8519 75.9011L53.7556 75.7558L53.6401 75.6303C53.6016 75.5906 53.5567 75.5576 53.5118 75.5246C53.4668 75.4915 53.4219 75.4651 53.377 75.4453C53.3321 75.4189 53.2871 75.399 53.2486 75.3924C53.1652 75.3594 53.0882 75.3528 53.0368 75.3462C52.9791 75.3462 52.9534 75.3462 52.9534 75.3462C52.9534 75.3462 52.9663 75.3726 52.9855 75.4255C53.0112 75.4717 53.0433 75.5378 53.0818 75.6104C53.101 75.6435 53.1267 75.6831 53.146 75.7227C53.1716 75.7624 53.1909 75.802 53.223 75.835C53.2486 75.8747 53.2743 75.9143 53.3064 75.9473L53.3962 76.0596L53.4925 76.1719L53.5888 76.2776C53.6144 76.3173 53.6529 76.3437 53.685 76.3767C53.7107 76.4098 53.7492 76.4362 53.7749 76.4692C53.8904 76.5815 53.9931 76.6542 53.9931 76.6542L53.9995 76.6476Z" fill="#868483"/>
<path d="M53.7878 78.5503C53.7878 78.5503 53.7942 78.4314 53.7493 78.2795C53.7364 78.2398 53.73 78.2002 53.7108 78.1606C53.6915 78.1209 53.6787 78.0747 53.653 78.0417L53.5824 77.9227L53.4926 77.8104L53.3899 77.7114C53.3578 77.6783 53.3193 77.6519 53.2808 77.6255C53.2423 77.5991 53.2102 77.5726 53.1717 77.5594C53.1332 77.5396 53.1011 77.5198 53.0626 77.5066C52.992 77.4801 52.9278 77.4669 52.8765 77.4603C52.8251 77.4603 52.7994 77.4603 52.7994 77.4603C52.7994 77.4603 52.7994 77.4868 52.8123 77.5396C52.8251 77.5858 52.8444 77.6519 52.8765 77.718C52.8893 77.751 52.9085 77.7906 52.9278 77.8237C52.9471 77.8633 52.9663 77.8963 52.992 77.9294C53.0176 77.9624 53.0369 78.002 53.069 78.0351L53.1524 78.1341L53.2487 78.2266L53.3514 78.3125C53.3514 78.3125 53.422 78.3654 53.454 78.3852C53.4861 78.405 53.5182 78.4248 53.5503 78.4446C53.6787 78.5173 53.7878 78.5503 53.7878 78.5503Z" fill="#868483"/>
<path d="M53.6529 80.8624C53.6529 80.8624 53.6721 80.7435 53.64 80.5916C53.6336 80.552 53.6208 80.5123 53.6079 80.4727C53.5951 80.433 53.5823 80.3868 53.5566 80.3472C53.5374 80.3075 53.5117 80.2613 53.486 80.2216L53.4026 80.1027L53.3063 79.997C53.2742 79.9574 53.2357 79.931 53.1972 79.9046C53.1587 79.8781 53.1266 79.8517 53.0817 79.8319C53.0432 79.8121 53.0111 79.7923 52.9726 79.779C52.902 79.746 52.8378 79.7328 52.7865 79.7262C52.7351 79.7262 52.7095 79.7262 52.7095 79.7262C52.7095 79.7262 52.7095 79.7526 52.7287 79.8055C52.7416 79.8517 52.7608 79.9178 52.7929 79.9838C52.8057 80.0169 52.825 80.0565 52.8442 80.0895C52.8635 80.1292 52.8827 80.1622 52.9084 80.2018C52.9277 80.2415 52.9533 80.2745 52.979 80.3075L53.0624 80.4132L53.1523 80.5123L53.2486 80.6048C53.2486 80.6048 53.3127 80.6576 53.3448 80.6841C53.3769 80.7105 53.409 80.7303 53.4411 80.7501C53.563 80.836 53.6721 80.8756 53.6721 80.8756L53.6529 80.8624Z" fill="#868483"/>
<path d="M53.5568 82.5601C53.5568 82.5601 53.5696 82.4478 53.5375 82.3091C53.5311 82.2761 53.5183 82.2365 53.5054 82.2034C53.4926 82.1704 53.4798 82.1241 53.4605 82.0911L53.3963 81.9788L53.3193 81.8731L53.2295 81.7806C53.2295 81.7806 53.1653 81.7278 53.1332 81.7014C53.1011 81.6749 53.069 81.6551 53.0305 81.6419C52.9985 81.6221 52.9664 81.6089 52.9279 81.5957C52.8637 81.5692 52.7995 81.5626 52.7546 81.556C52.7097 81.556 52.684 81.556 52.684 81.556C52.684 81.556 52.684 81.5825 52.6968 81.6287C52.7032 81.6749 52.7225 81.7344 52.7417 81.8005C52.7546 81.8335 52.7674 81.8665 52.7803 81.8995C52.7931 81.9326 52.8123 81.9656 52.8316 81.9986C52.8508 82.0317 52.8701 82.0647 52.8958 82.0977L52.9728 82.1902L53.0562 82.2761L53.1461 82.3488C53.1461 82.3488 53.2102 82.395 53.2359 82.4148C53.2616 82.4346 53.3001 82.4545 53.3258 82.4677C53.4413 82.5337 53.5504 82.5535 53.5504 82.5535L53.5568 82.5601Z" fill="#868483"/>
<path d="M53.4413 84.5159C53.4413 84.5159 53.4478 84.3904 53.4028 84.245C53.39 84.2054 53.3772 84.1657 53.3579 84.1261C53.3387 84.0865 53.3258 84.0402 53.3002 84.0072L53.2231 83.8883L53.1333 83.776L53.0306 83.6769C52.9985 83.6439 52.9536 83.6174 52.9151 83.591C52.8766 83.5646 52.8381 83.5448 52.7996 83.525C52.7611 83.5051 52.7226 83.4919 52.6841 83.4787C52.6135 83.4523 52.5429 83.4391 52.4979 83.4391C52.4466 83.4391 52.4209 83.4391 52.4209 83.4391C52.4209 83.4391 52.4274 83.4655 52.4402 83.5184C52.453 83.5646 52.4787 83.6307 52.5108 83.6967C52.5236 83.7298 52.5429 83.7694 52.5685 83.8024C52.5878 83.8354 52.6135 83.8751 52.6391 83.9081C52.6648 83.9411 52.6905 83.9808 52.7161 84.0138L52.806 84.1129L52.9023 84.2054L53.0049 84.2913C53.0049 84.2913 53.0755 84.3375 53.1076 84.3639C53.1397 84.3904 53.1782 84.4036 53.2039 84.4234C53.3322 84.4961 53.4478 84.5291 53.4478 84.5291L53.4413 84.5159Z" fill="#868483"/>
<path d="M53.4026 86.2665C53.4026 86.2665 53.409 86.1608 53.3769 86.0419C53.3705 86.0089 53.364 85.9759 53.3512 85.9494C53.3384 85.9164 53.332 85.8834 53.3127 85.8503C53.2935 85.8173 53.2806 85.7843 53.2614 85.7579C53.2421 85.7314 53.2164 85.6984 53.1972 85.672C53.1715 85.6456 53.1458 85.6191 53.1202 85.5927C53.0945 85.5663 53.0688 85.5465 53.0367 85.5267C53.0111 85.5068 52.979 85.487 52.9469 85.4738C52.9212 85.454 52.8891 85.4408 52.857 85.4342C52.7993 85.4077 52.748 85.4011 52.703 85.3945C52.6581 85.3945 52.6324 85.3945 52.6324 85.3945C52.6324 85.3945 52.6324 85.421 52.6324 85.4672C52.6324 85.5068 52.6324 85.5663 52.6517 85.6257C52.6517 85.6588 52.6645 85.6918 52.6774 85.7182C52.6902 85.7513 52.703 85.7843 52.7223 85.8173C52.7415 85.8503 52.7544 85.8834 52.78 85.9098C52.7993 85.9362 52.825 85.9693 52.8442 85.9957C52.8699 86.0221 52.8956 86.0485 52.9212 86.075C52.9533 86.0948 52.979 86.1212 53.0047 86.141C53.0303 86.1608 53.0624 86.1806 53.0945 86.1939C53.1202 86.2137 53.1523 86.2203 53.1844 86.2335C53.2935 86.2797 53.4026 86.2863 53.4026 86.2863V86.2665Z" fill="#868483"/>
<path d="M53.3642 87.6073C53.3642 87.6073 53.3642 87.5148 53.3449 87.4157C53.3385 87.3893 53.3321 87.3629 53.3193 87.3431C53.3064 87.3232 53.3 87.2902 53.2808 87.2704C53.2679 87.2506 53.2487 87.2242 53.2358 87.2043C53.2166 87.1845 53.1973 87.1647 53.1781 87.1449C53.1588 87.1317 53.1332 87.1118 53.1139 87.0986C53.0947 87.0854 53.069 87.0722 53.0433 87.0656C53.0176 87.0524 52.992 87.0458 52.9663 87.0458C52.9406 87.0458 52.915 87.0392 52.8893 87.0392C52.8444 87.0392 52.793 87.0392 52.7609 87.0458C52.7224 87.0524 52.7032 87.059 52.7032 87.059C52.7032 87.059 52.7032 87.0788 52.7032 87.1185C52.7032 87.1515 52.7032 87.2043 52.7224 87.2506C52.7224 87.277 52.7353 87.3034 52.7481 87.3232C52.7545 87.3497 52.7673 87.3695 52.7866 87.3959C52.7994 87.4157 52.8123 87.4422 52.8379 87.462C52.8572 87.4818 52.8765 87.5016 52.8957 87.5148C52.915 87.528 52.9406 87.5478 52.9599 87.5611C52.9855 87.5743 53.0112 87.5809 53.0305 87.5941C53.0497 87.6073 53.0818 87.6073 53.1075 87.6139C53.1332 87.6205 53.1588 87.6205 53.1845 87.6205C53.2808 87.6271 53.3706 87.6007 53.3706 87.6007L53.3642 87.6073Z" fill="#868483"/>
<path d="M81.9675 81.7804C81.9675 81.7804 81.3964 81.9522 80.3695 82.0447C79.3491 82.1504 77.8731 82.157 76.1531 81.8465C75.2996 81.6681 74.3819 81.4501 73.4513 81.0868C72.9764 80.9282 72.5207 80.6904 72.0394 80.4856C71.5774 80.228 71.0896 80.0166 70.6275 79.7193C69.6713 79.1842 68.7536 78.5104 67.8679 77.7838C66.9759 77.0571 66.148 76.2313 65.3972 75.3263C64.6399 74.4279 63.966 73.4634 63.3499 72.4593C62.7338 71.4618 62.1562 70.4379 61.4952 69.4932C60.8727 68.5617 60.2502 67.6435 59.5956 66.8244C58.9474 65.9986 58.2607 65.2653 57.5355 64.6906C56.1237 63.4685 54.3652 63.2307 53.3897 63.6931C53.1523 63.812 52.9405 63.9111 52.7544 64.0036C52.5875 64.1225 52.4528 64.2282 52.3372 64.3141C52.1126 64.4858 51.9971 64.5717 51.9971 64.5717C51.9971 64.5717 52.1255 64.499 52.3693 64.3537C52.4913 64.2876 52.6325 64.1952 52.8122 64.1027C52.9983 64.0366 53.2165 63.9639 53.4539 63.8781C54.423 63.5544 55.9375 63.8979 57.1954 65.12C57.8372 65.7079 58.4468 66.4412 59.0437 67.267C59.6405 68.0927 60.2053 69.011 60.815 69.9688C61.4246 70.8937 61.9573 71.9308 62.5926 72.9548C63.2152 73.9787 63.9147 74.996 64.6976 75.9407C65.487 76.8787 66.3662 77.7441 67.3096 78.4972C68.2594 79.2371 69.2285 79.9043 70.2296 80.4394C70.711 80.7367 71.2372 80.9415 71.725 81.1859C72.2384 81.3774 72.7261 81.5954 73.2267 81.7408C74.2086 82.0843 75.1841 82.2428 76.0697 82.3684C77.8602 82.5731 79.3684 82.4278 80.3824 82.223C81.4092 82.0248 81.9547 81.7804 81.9547 81.7804H81.9675Z" fill="#004D80"/>
<path d="M83.5274 76.4029C82.9306 75.3459 79.4201 75.8348 78.9452 77.4599C78.4703 79.0849 78.9452 85.9222 82.661 85.757C86.3769 85.5919 85.2666 79.4945 83.5274 76.4029Z" fill="#0067AB"/>
<path d="M48.4867 92.3897C48.4867 92.3897 48.5765 92.3368 48.769 92.3104C48.9616 92.2906 49.2439 92.3104 49.5777 92.4359C50.2515 92.687 51.0666 93.3542 51.8688 94.2988C52.2731 94.7679 52.6774 95.3162 53.0817 95.9107C53.486 96.5052 53.8903 97.1526 54.2625 97.8331C54.4679 98.17 54.6348 98.5267 54.8145 98.89C55.0006 99.2467 55.1674 99.6233 55.3279 100.006C55.668 100.76 55.9568 101.546 56.2392 102.338C56.5216 103.131 56.7654 103.937 56.99 104.736C57.2018 105.536 57.4072 106.328 57.5676 107.101C57.7345 107.874 57.8757 108.627 57.9784 109.341C58.0939 110.054 58.1516 110.741 58.2094 111.369C58.3057 112.631 58.2415 113.688 58.1067 114.414C58.0682 114.593 58.0297 114.751 57.9976 114.896C57.9591 115.035 57.8949 115.141 57.8628 115.233C57.7794 115.412 57.7409 115.511 57.7409 115.511C57.7409 115.511 57.7923 115.418 57.8885 115.247C57.9334 115.161 58.004 115.055 58.0554 114.923C58.1003 114.784 58.1516 114.626 58.203 114.447C58.3955 113.727 58.5239 112.65 58.4854 111.369C58.4597 110.728 58.4212 110.034 58.3313 109.308C58.2543 108.574 58.1324 107.815 57.9784 107.029C57.8308 106.243 57.6382 105.437 57.4264 104.624C57.2018 103.818 56.958 102.999 56.6756 102.193C56.3868 101.394 56.0852 100.594 55.7322 99.8347C55.5653 99.4515 55.3856 99.075 55.1931 98.7117C55.007 98.3483 54.8273 97.985 54.6155 97.6415C54.2176 96.9478 53.7812 96.3137 53.3577 95.7257C52.9277 95.1378 52.4977 94.6027 52.0613 94.1403C51.2013 93.2088 50.3157 92.5747 49.6033 92.3699C49.2504 92.2642 48.9552 92.2642 48.7626 92.3038C48.5701 92.3434 48.4802 92.4029 48.4802 92.4029L48.4867 92.3897Z" fill="#2CAAFF"/>
<path d="M80.1578 76.2575C80.1578 76.2575 79.7342 76.8388 79.6829 77.4465C79.6315 78.0543 79.9588 82.4869 80.6327 83.9733C81.3065 85.4597 82.6606 85.7569 82.6606 85.7569C82.6606 85.7569 80.6712 85.8957 79.6764 83.5175C78.6817 81.1459 78.7587 77.5588 79.0668 77.1691C79.3748 76.7793 80.1578 76.2509 80.1578 76.2509V76.2575Z" fill="#0095F8"/>
<path d="M81.7427 84.0929C81.9545 84.2911 84.1108 84.0929 84.483 83.7097C84.8488 83.3332 84.3803 80.8956 84.1172 80.5653C83.8541 80.235 81.64 80.1887 81.486 80.5653C81.3255 80.9418 81.1715 83.5446 81.7491 84.0929H81.7427Z" fill="#0095F8"/>
<path d="M84.6504 91.9671C78.8681 92.3569 70.9294 94.4774 69.5047 98.7845C68.08 103.098 69.1453 117.737 72.1167 119.851C75.0881 121.965 86.8901 121.027 91.7932 119.158C96.6899 117.288 100.99 116.073 102.017 111.904C102.369 108.661 102.44 97.2652 99.5265 91.9605C95.7144 89.4238 89.3096 91.65 84.6504 91.9605V91.9671Z" fill="#007BCD"/>
<path d="M101.028 95.9373C101.028 95.9373 99.8216 102.774 91.684 105.377C83.5464 107.98 75.0559 105.1 73.8044 100.561C72.5594 96.0231 101.028 95.9373 101.028 95.9373Z" fill="#2CAAFF"/>
<path d="M68.5613 96.413C69.325 94.1075 71.7445 94.8011 75.3384 93.6781C74.9212 96.3535 73.7981 104.367 74.3821 109.85C74.8442 114.183 76.0764 118.411 76.885 120.849C74.78 120.802 73.0408 120.512 72.1231 119.858C69.1517 117.744 67.143 100.727 68.5677 96.413H68.5613Z" fill="#004E83"/>
<path d="M91.036 103.937C85.1639 105.093 74.8443 103.944 73.8046 100.561C71.3018 92.4293 68.9529 96.9082 68.555 96.6637C68.1571 96.4193 69.5048 91.9669 81.1721 89.9983C96.029 87.4946 100.547 89.985 101.247 92.3566C102.511 96.6703 97.3767 102.688 91.036 103.93V103.937Z" fill="#27A9FF"/>
<path d="M91.1195 100.581C87.4999 101.149 88.315 107.775 91.7933 107.286C95.2717 106.797 93.4812 100.204 91.1195 100.581Z" fill="#0067AB"/>
<path d="M90.1115 100.958C90.1115 100.958 89.0462 101.638 88.905 102.702C88.7638 103.765 88.7574 105.496 89.688 106.494C90.6185 107.491 91.793 107.286 91.793 107.286C91.793 107.286 90.1051 106.434 89.7907 105.456C89.4762 104.479 89.3928 103.019 89.5917 102.286C89.7907 101.552 90.1115 100.951 90.1115 100.951V100.958Z" fill="#0095F8"/>
<path d="M130.503 119.402C130.503 119.402 131.736 119.375 132.024 122.368C132.211 124.244 131.036 125.856 131.036 125.856L103.896 129.397C103.896 129.397 105.109 126.153 104.043 122.962L130.503 119.408V119.402Z" fill="#6FA068"/>
<path d="M86.9145 106.738L103.928 123.075L130.952 119.534C130.952 119.534 118.162 108.363 112.585 104.479C111.886 103.99 110.795 103.997 110.795 103.997L86.9209 106.738H86.9145Z" fill="#7FB877"/>
<path d="M86.9147 106.738C86.9147 106.738 88.0892 109.724 86.8185 111.692L103.889 129.396C103.889 129.396 105.237 125.908 104.082 122.916L86.9083 106.738H86.9147Z" fill="#577F52"/>
<path d="M104.287 124.092L87.197 107.775C87.197 107.775 87.4537 109.037 87.12 111.177L103.96 128.531C103.96 128.531 105.032 126.615 104.294 124.092H104.287Z" fill="#EDD3CD"/>
<path d="M104.288 124.092C104.288 124.092 104.499 126.695 103.954 128.531L130.369 125.017C130.369 125.017 131.133 124.396 131.242 122.996C131.293 122.276 131.081 120.776 130.363 120.571L104.288 124.092Z" fill="white"/>
<path d="M102.586 116.448L106.68 117.201L103.215 120.3C103.215 120.3 101.399 117.994 102.586 116.448Z" fill="#FAD99F"/>
<path d="M104.986 116.891L106.687 117.202L105.301 118.437C105.14 118.107 104.89 117.552 104.986 116.885V116.891Z" fill="black"/>
<path d="M102.586 116.448L85.2904 121.898L86.2659 125.618L103.183 120.313L103.549 119.302L102.907 118.813L103.125 117.888L102.361 117.446L102.586 116.448Z" fill="#2B3990"/>
<path d="M85.2911 121.898C85.2911 121.898 83.5712 122.367 83.1155 122.625C82.6278 122.935 82.4545 123.722 82.6919 124.739C82.9358 125.756 83.7765 126.338 84.1295 126.245C84.6108 126.126 86.2922 125.624 86.2922 125.624L85.2847 121.892L85.2911 121.898Z" fill="#FAD95B"/>
<g style="mix-blend-mode:multiply" opacity="0.4">
<path d="M82.692 124.746C82.6728 124.673 82.6599 124.6 82.6471 124.528C83.0065 125.096 83.7188 125.215 84.4569 125.069C85.2591 124.911 85.6185 124.772 86.0099 124.6L86.2859 125.631C86.2859 125.631 84.6045 126.133 84.1231 126.252C83.7702 126.338 82.9295 125.763 82.6856 124.746H82.692Z" fill="#EBCF5B"/>
</g>
<path d="M85.6887 123.411L103.113 117.889H103.125L102.914 118.794L85.8941 124.191L85.6887 123.411Z" fill="#0A93EE"/>
<path d="M85.2909 121.898L102.586 116.448L102.368 117.413L85.5155 122.757L85.2909 121.898Z" fill="#0A93EE"/>
<path d="M103.523 119.369L103.183 120.313L86.2664 125.618L86.0803 124.905L103.523 119.369Z" fill="#0A93EE"/>
<path d="M86.6453 125.525L85.6762 121.747L85.0729 121.925L86.0484 125.697L86.6453 125.525Z" fill="#FBB040"/>
</svg>
